<?xml version="1.0" standalone="no"?><!DOCTYPE svg PUBLIC "-//W3C//DTD SVG 1.1//EN" "http://www.w3.org/Graphics/SVG/1.1/DTD/svg11.dtd"><svg t="1544537763944" class="icon" style="" viewBox="0 0 1026 1024" version="1.1" xmlns="http://www.w3.org/2000/svg" p-id="34192" xmlns:xlink="http://www.w3.org/1999/xlink" width="200.390625" height="200"><defs><style type="text/css"></style></defs><path d="M982.7 396.8c-0.5-0.6-1.1-1.2-1.6-1.8L639.8 61.9C606.3 22.1 561.4 0.3 513.2 0.3h-0.1c-48.3 0-93.2 22-126.8 61.9L44.9 394.7c-0.6 0.6-1.1 1.2-1.7 1.8C-4.3 453.7 3.9 494.9 13 514.4c9.1 19.5 35.5 52.2 109.9 52.2h38.5v433.9c0 12.8 10.4 23.2 23.2 23.2h654.6c12.8 0 23.2-10.4 23.2-23.2V570.4c0-12.8-10.4-23.2-23.2-23.2S816 557.6 816 570.4v406.9H680.3c0.1-1.1 0.6-2.1 0.6-3.2V756.7c0-90.1-53.5-152.9-130.2-152.9H475c-71.8 0-130.2 58.5-130.2 130.3v240c0 1.1 0.5 2.1 0.6 3.2H207.7V543.4c0-12.9-10.4-23.3-23.2-23.3h-61.7c-35 0-60.4-9.5-67.9-25.4-7.3-15.7 1.3-40.9 23.2-67.6L419.4 94.7c0.6-0.6 1.1-1.2 1.6-1.8 24.7-29.7 57.4-46.1 92.1-46.2h0.1c34.5 0 67.1 16.3 91.8 45.9 0.5 0.6 1.1 1.2 1.6 1.8l341.1 333c21.9 26.6 30.6 51.8 23.3 67.4-7.4 15.9-32.8 25.3-67.8 25.3-12.8 0-23.2 10.4-23.2 23.3 0 12.8 10.4 23.2 23.2 23.2 74.4 0 100.7-32.6 109.9-52.1 9-19.4 17.2-60.6-30.4-117.7zM391.3 974V734c0-46.2 37.6-83.8 83.8-83.8h75.7c50.1 0 83.8 42.8 83.8 106.5V974c0 1.1 0.5 2.1 0.7 3.2H390.6c0.2-1.1 0.7-2 0.7-3.2z" fill="" p-id="34193"></path></svg>