<?xml version="1.0" standalone="no"?><!DOCTYPE svg PUBLIC "-//W3C//DTD SVG 1.1//EN" "http://www.w3.org/Graphics/SVG/1.1/DTD/svg11.dtd"><svg t="1556172939907" class="icon" style="" viewBox="0 0 1654 1024" version="1.1" xmlns="http://www.w3.org/2000/svg" p-id="2763" xmlns:xlink="http://www.w3.org/1999/xlink" width="323.046875" height="200"><defs><style type="text/css"></style></defs><path d="M949.60138123 794.81826194c-57.11774562 85.78339482-115.30706864 151.97332076-213.09136785 151.97332076-66.73524823-10.92742022-94.21873021-58.83951503-79.71430066-107.52001857l125.79784966-416.6701027c3.1403701-10.27722822-1.93341548-21.08833844-11.24584269-24.45179496-9.29908016-3.35201618-27.47204162 8.76901161-43.2749484 25.96191831l-75.92564528 91.51881272c-2.16031532-15.24805086-0.32032921-40.66655359-0.32032921-50.95903556 57.22452202-85.78339482 151.00661303-153.49679117 214.72161461-153.49679116 60.57463148 6.2788335 89.1335043 54.6275675 78.64272326 107.74501167l-126.67303479 418.72364162c-1.63024677 9.51072625 3.35010945 19.03479952 11.89412795 22.06839324 9.29908016 3.35201618 28.87729529-8.76901161 44.66685501-26.06869466l75.92564531-91.41203635c2.05353893 15.37961465-1.40334694 42.41501707-1.40334692 52.58737564z m-16.87448422-544.32319231c-48.12564758 0-87.07996535-34.94448271-87.07996536-86.64332616 0-51.5958805 39.04965382-86.64332617 87.07996536-86.64332617 48.13518122 0 87.07996535 35.04935238 87.07996538 86.64141947 0 51.70075019-38.94478415 86.64523291-87.07996538 86.64523286z" p-id="2764"></path><path d="M835.44597229-297.2602211C388.50666771-297.2602211 26.18575119 65.06069541 26.18575119 512s362.32091651 809.2602211 809.2602211 809.2602211S1644.70619341 958.93930459 1644.70619341 512 1282.38337014-297.2602211 835.44597229-297.2602211z m0 1512.84231652c-388.5764699 0-703.58209542-315.00562551-703.58209543-703.58209542s315.00562551-703.58209542 703.5801887-703.58209542S1539.02997443 123.4235301 1539.02997443 512s-315.00562551 703.58209542-703.58209543 703.58209542z" p-id="2765"></path></svg>