<?xml version="1.0" standalone="no"?><!DOCTYPE svg PUBLIC "-//W3C//DTD SVG 1.1//EN" "http://www.w3.org/Graphics/SVG/1.1/DTD/svg11.dtd"><svg t="1571644312541" class="icon" viewBox="0 0 1024 1024" version="1.1" xmlns="http://www.w3.org/2000/svg" p-id="5532" xmlns:xlink="http://www.w3.org/1999/xlink" width="200" height="200"><defs><style type="text/css"></style></defs><path d="M174.32330188 517.02465125a333.58047938 324.45999094 0 1 0 667.16095875 0 333.58047938 324.45999094 0 1 0-667.16095875 0Z" fill="#FFFFFF" p-id="5533"></path><path d="M511.99980875 32.0003825a479.99980875 479.99980875 0 1 0 479.99980875 479.99980875A479.39905781 479.39905781 0 0 0 511.99980875 32.0003825m201.57916687 681.57897562a34.67969906 34.67969906 0 0 1-47.95082906 0L511.99980875 560.00563344 358.426085 713.57935812A33.91510781 33.91510781 0 0 1 310.52987 665.51930187l153.46449656-153.51911062L310.52987 358.42646656A33.96972094 33.96972094 0 0 1 358.426085 310.5302525l153.57372375 153.46449656L665.51891937 310.5302525a33.91510781 33.91510781 0 0 1 47.95082813 48.00544219l-153.46449656 153.46449656L713.57897562 665.51930187a29.9283075 29.9283075 0 0 1 1e-8 48.06005626z" fill="#BFBFBF" p-id="5534"></path></svg>