<?xml version="1.0" standalone="no"?><!DOCTYPE svg PUBLIC "-//W3C//DTD SVG 1.1//EN" "http://www.w3.org/Graphics/SVG/1.1/DTD/svg11.dtd"><svg t="1555484795226" class="icon" style="" viewBox="0 0 1024 1024" version="1.1" xmlns="http://www.w3.org/2000/svg" p-id="21635" xmlns:xlink="http://www.w3.org/1999/xlink" width="80" height="80"><defs><style type="text/css"></style></defs><path d="M864 128 672 128 672 64c0-35.2-28.8-64-64-64L416 0c-35.2 0-64 28.8-64 64l0 64L160 128c-35.2 0-64 28.8-64 64l0 64c0 35.2 28.8 64 64 64l0 576c0 70.4 57.6 128 128 128l448 0c70.4 0 128-57.6 128-128L864 320c35.2 0 64-28.8 64-64l0-64C928 156.8 899.2 128 864 128zM416 96c0-17.6 14.4-32 32-32l128 0c17.6 0 32 14.4 32 32l0 32c-30.4 0-192 0-192 0L416 96zM800 896c0 35.2-28.8 64-64 64L288 960c-35.2 0-64-28.8-64-64L224 320c43.2 0 539.2 0 576 0L800 896zM832 256 192 256c-17.6 0-32-14.4-32-32 0-17.6 14.4-32 32-32l640 0c17.6 0 32 14.4 32 32C864 241.6 849.6 256 832 256z" p-id="21636" fill="#999999"></path><path d="M352 896c17.6 0 32-14.4 32-32L384 480c0-17.6-14.4-32-32-32-17.6 0-32 14.4-32 32l0 384C320 881.6 334.4 896 352 896z" p-id="21637" fill="#999999"></path><path d="M512 896c17.6 0 32-14.4 32-32L544 480c0-17.6-14.4-32-32-32-17.6 0-32 14.4-32 32l0 384C480 881.6 494.4 896 512 896z" p-id="21638" fill="#999999"></path><path d="M672 896c17.6 0 32-14.4 32-32L704 480c0-17.6-14.4-32-32-32-17.6 0-32 14.4-32 32l0 384C640 881.6 654.4 896 672 896z" p-id="21639" fill="#999999"></path></svg>